<mxfile host="app.diagrams.net" modified="2020-10-25T13:04:13.349Z" agent="5.0 (Macintosh; Intel Mac OS X 10_15_7) AppleWebKit/537.36 (KHTML, like Gecko) Chrome/86.0.4240.111 Safari/537.36" etag="zmtyguQWo37Ff_WPH2GP" version="13.8.2" type="github">
  <diagram id="C5RBs43oDa-KdzZeNtuy" name="Page-1">
    <mxGraphModel dx="1351" dy="2046" grid="1" gridSize="10" guides="1" tooltips="1" connect="1" arrows="1" fold="1" page="1" pageScale="1" pageWidth="827" pageHeight="1169" math="0" shadow="0">
      <root>
        <mxCell id="WIyWlLk6GJQsqaUBKTNV-0" />
        <mxCell id="WIyWlLk6GJQsqaUBKTNV-1" parent="WIyWlLk6GJQsqaUBKTNV-0" />
        <mxCell id="Qpe2LVaDGdShcBn4zMtE-0" value="&lt;pre style=&quot;background-color: rgb(255 , 255 , 255) ; font-family: &amp;quot;courier&amp;quot; , monospace ; font-size: 10.5pt&quot;&gt;ChainCacheConfig&lt;/pre&gt;" style="rounded=0;whiteSpace=wrap;html=1;fontStyle=2" vertex="1" parent="WIyWlLk6GJQsqaUBKTNV-1">
          <mxGeometry x="360" y="120" width="160" height="40" as="geometry" />
        </mxCell>
        <mxCell id="Qpe2LVaDGdShcBn4zMtE-1" value="&lt;pre style=&quot;background-color: rgb(255 , 255 , 255) ; font-family: &amp;#34;courier&amp;#34; , monospace ; font-size: 10.5pt&quot;&gt;ChainCache&lt;/pre&gt;" style="rounded=0;whiteSpace=wrap;html=1;" vertex="1" parent="WIyWlLk6GJQsqaUBKTNV-1">
          <mxGeometry x="360" y="200" width="160" height="40" as="geometry" />
        </mxCell>
        <mxCell id="Qpe2LVaDGdShcBn4zMtE-3" value="" style="endArrow=block;dashed=1;endFill=0;endSize=12;html=1;exitX=0.5;exitY=0;exitDx=0;exitDy=0;entryX=0.5;entryY=1;entryDx=0;entryDy=0;" edge="1" parent="WIyWlLk6GJQsqaUBKTNV-1" source="Qpe2LVaDGdShcBn4zMtE-1" target="Qpe2LVaDGdShcBn4zMtE-0">
          <mxGeometry width="160" relative="1" as="geometry">
            <mxPoint x="290" y="160" as="sourcePoint" />
            <mxPoint x="450" y="160" as="targetPoint" />
          </mxGeometry>
        </mxCell>
        <mxCell id="Qpe2LVaDGdShcBn4zMtE-4" value="&lt;pre style=&quot;background-color: rgb(255 , 255 , 255) ; font-family: &amp;#34;courier&amp;#34; , monospace ; font-size: 10.5pt&quot;&gt;&lt;pre style=&quot;font-family: &amp;#34;courier&amp;#34; , monospace ; font-size: 10.5pt&quot;&gt;ChainCacheConfig&lt;/pre&gt;&lt;/pre&gt;" style="rounded=0;whiteSpace=wrap;html=1;" vertex="1" parent="WIyWlLk6GJQsqaUBKTNV-1">
          <mxGeometry x="560" y="200" width="160" height="40" as="geometry" />
        </mxCell>
        <mxCell id="Qpe2LVaDGdShcBn4zMtE-6" value="" style="endArrow=block;endSize=16;endFill=0;html=1;" edge="1" parent="WIyWlLk6GJQsqaUBKTNV-1">
          <mxGeometry width="160" relative="1" as="geometry">
            <mxPoint x="520" y="220" as="sourcePoint" />
            <mxPoint x="560" y="220" as="targetPoint" />
            <Array as="points" />
          </mxGeometry>
        </mxCell>
        <mxCell id="Qpe2LVaDGdShcBn4zMtE-7" value="" style="endArrow=open;endSize=12;dashed=1;html=1;entryX=0;entryY=0.5;entryDx=0;entryDy=0;exitX=1;exitY=0.5;exitDx=0;exitDy=0;edgeStyle=orthogonalEdgeStyle;" edge="1" parent="WIyWlLk6GJQsqaUBKTNV-1" source="Qpe2LVaDGdShcBn4zMtE-4" target="Qpe2LVaDGdShcBn4zMtE-8">
          <mxGeometry width="160" relative="1" as="geometry">
            <mxPoint x="430" y="310" as="sourcePoint" />
            <mxPoint x="590" y="310" as="targetPoint" />
          </mxGeometry>
        </mxCell>
        <mxCell id="Qpe2LVaDGdShcBn4zMtE-8" value="&lt;pre style=&quot;background-color: rgb(255 , 255 , 255) ; font-family: &amp;quot;courier&amp;quot; , monospace ; font-size: 10.5pt&quot;&gt;&lt;pre style=&quot;font-family: &amp;quot;courier&amp;quot; , monospace ; font-size: 10.5pt&quot;&gt;&lt;pre style=&quot;font-family: &amp;quot;courier&amp;quot; , monospace ; font-size: 10.5pt&quot;&gt;&lt;span style=&quot;color: #336ecc&quot;&gt;StoreInterface&lt;/span&gt;&lt;/pre&gt;&lt;/pre&gt;&lt;/pre&gt;" style="rounded=0;whiteSpace=wrap;html=1;fontStyle=2" vertex="1" parent="WIyWlLk6GJQsqaUBKTNV-1">
          <mxGeometry x="800" y="120" width="160" height="40" as="geometry" />
        </mxCell>
        <mxCell id="Qpe2LVaDGdShcBn4zMtE-9" value="&lt;pre style=&quot;background-color: rgb(255 , 255 , 255) ; font-family: &amp;quot;courier&amp;quot; , monospace ; font-size: 10.5pt&quot;&gt;&lt;pre style=&quot;font-family: &amp;quot;courier&amp;quot; , monospace ; font-size: 10.5pt&quot;&gt;&lt;pre style=&quot;font-family: &amp;quot;courier&amp;quot; , monospace ; font-size: 10.5pt&quot;&gt;&lt;pre style=&quot;font-family: &amp;quot;courier&amp;quot; , monospace ; font-size: 10.5pt&quot;&gt;&lt;span style=&quot;color: #336ecc&quot;&gt;LoadInterface&lt;/span&gt;&lt;/pre&gt;&lt;/pre&gt;&lt;/pre&gt;&lt;/pre&gt;" style="rounded=0;whiteSpace=wrap;html=1;fontStyle=2" vertex="1" parent="WIyWlLk6GJQsqaUBKTNV-1">
          <mxGeometry x="800" y="180" width="160" height="40" as="geometry" />
        </mxCell>
        <mxCell id="Qpe2LVaDGdShcBn4zMtE-10" value="&lt;pre style=&quot;background-color: rgb(255 , 255 , 255) ; font-family: &amp;quot;courier&amp;quot; , monospace ; font-size: 10.5pt&quot;&gt;&lt;pre style=&quot;font-family: &amp;quot;courier&amp;quot; , monospace ; font-size: 10.5pt&quot;&gt;&lt;pre style=&quot;font-family: &amp;quot;courier&amp;quot; , monospace ; font-size: 10.5pt&quot;&gt;&lt;pre style=&quot;font-family: &amp;quot;courier&amp;quot; , monospace ; font-size: 10.5pt&quot;&gt;&lt;span style=&quot;color: #336ecc&quot;&gt;MetricsInterface&lt;/span&gt;&lt;/pre&gt;&lt;/pre&gt;&lt;/pre&gt;&lt;/pre&gt;" style="rounded=0;whiteSpace=wrap;html=1;fontStyle=2" vertex="1" parent="WIyWlLk6GJQsqaUBKTNV-1">
          <mxGeometry x="800" y="240" width="160" height="40" as="geometry" />
        </mxCell>
        <mxCell id="Qpe2LVaDGdShcBn4zMtE-11" value="&lt;pre style=&quot;background-color: rgb(255 , 255 , 255) ; font-family: &amp;quot;courier&amp;quot; , monospace ; font-size: 10.5pt&quot;&gt;&lt;pre style=&quot;font-family: &amp;quot;courier&amp;quot; , monospace ; font-size: 10.5pt&quot;&gt;&lt;pre style=&quot;font-family: &amp;quot;courier&amp;quot; , monospace ; font-size: 10.5pt&quot;&gt;&lt;pre style=&quot;font-family: &amp;quot;courier&amp;quot; , monospace ; font-size: 10.5pt&quot;&gt;&lt;span style=&quot;color: #336ecc&quot;&gt;KeyInterface&lt;/span&gt;&lt;/pre&gt;&lt;/pre&gt;&lt;/pre&gt;&lt;/pre&gt;" style="rounded=0;whiteSpace=wrap;html=1;fontStyle=2" vertex="1" parent="WIyWlLk6GJQsqaUBKTNV-1">
          <mxGeometry x="800" y="300" width="160" height="40" as="geometry" />
        </mxCell>
        <mxCell id="Qpe2LVaDGdShcBn4zMtE-12" value="&lt;pre style=&quot;background-color: rgb(255 , 255 , 255) ; font-family: &amp;quot;courier&amp;quot; , monospace ; font-size: 10.5pt&quot;&gt;&lt;pre style=&quot;font-family: &amp;quot;courier&amp;quot; , monospace ; font-size: 10.5pt&quot;&gt;&lt;pre style=&quot;font-family: &amp;quot;courier&amp;quot; , monospace ; font-size: 10.5pt&quot;&gt;&lt;pre style=&quot;font-family: &amp;quot;courier&amp;quot; , monospace ; font-size: 10.5pt&quot;&gt;&lt;pre style=&quot;font-family: &amp;quot;courier&amp;quot; , monospace ; font-size: 10.5pt&quot;&gt;&lt;span style=&quot;color: #336ecc&quot;&gt;MarshalInterface&lt;/span&gt;&lt;/pre&gt;&lt;/pre&gt;&lt;/pre&gt;&lt;/pre&gt;&lt;/pre&gt;" style="rounded=0;whiteSpace=wrap;html=1;fontStyle=2" vertex="1" parent="WIyWlLk6GJQsqaUBKTNV-1">
          <mxGeometry x="800" y="360" width="160" height="40" as="geometry" />
        </mxCell>
        <mxCell id="Qpe2LVaDGdShcBn4zMtE-13" value="" style="endArrow=open;endSize=12;dashed=1;html=1;entryX=0;entryY=0.5;entryDx=0;entryDy=0;exitX=1;exitY=0.5;exitDx=0;exitDy=0;edgeStyle=orthogonalEdgeStyle;" edge="1" parent="WIyWlLk6GJQsqaUBKTNV-1" source="Qpe2LVaDGdShcBn4zMtE-4" target="Qpe2LVaDGdShcBn4zMtE-9">
          <mxGeometry width="160" relative="1" as="geometry">
            <mxPoint x="730" y="230" as="sourcePoint" />
            <mxPoint x="810" y="150" as="targetPoint" />
          </mxGeometry>
        </mxCell>
        <mxCell id="Qpe2LVaDGdShcBn4zMtE-14" value="" style="endArrow=open;endSize=12;dashed=1;html=1;entryX=0;entryY=0.5;entryDx=0;entryDy=0;exitX=1;exitY=0.5;exitDx=0;exitDy=0;edgeStyle=orthogonalEdgeStyle;" edge="1" parent="WIyWlLk6GJQsqaUBKTNV-1" source="Qpe2LVaDGdShcBn4zMtE-4" target="Qpe2LVaDGdShcBn4zMtE-10">
          <mxGeometry width="160" relative="1" as="geometry">
            <mxPoint x="740" y="240" as="sourcePoint" />
            <mxPoint x="820" y="160" as="targetPoint" />
          </mxGeometry>
        </mxCell>
        <mxCell id="Qpe2LVaDGdShcBn4zMtE-15" value="" style="endArrow=open;endSize=12;dashed=1;html=1;entryX=0;entryY=0.5;entryDx=0;entryDy=0;exitX=1;exitY=0.5;exitDx=0;exitDy=0;edgeStyle=orthogonalEdgeStyle;" edge="1" parent="WIyWlLk6GJQsqaUBKTNV-1" source="Qpe2LVaDGdShcBn4zMtE-4" target="Qpe2LVaDGdShcBn4zMtE-11">
          <mxGeometry width="160" relative="1" as="geometry">
            <mxPoint x="750" y="250" as="sourcePoint" />
            <mxPoint x="830" y="170" as="targetPoint" />
          </mxGeometry>
        </mxCell>
        <mxCell id="Qpe2LVaDGdShcBn4zMtE-16" value="" style="endArrow=open;endSize=12;dashed=1;html=1;exitX=1;exitY=0.5;exitDx=0;exitDy=0;edgeStyle=orthogonalEdgeStyle;entryX=0;entryY=0.5;entryDx=0;entryDy=0;" edge="1" parent="WIyWlLk6GJQsqaUBKTNV-1" source="Qpe2LVaDGdShcBn4zMtE-4" target="Qpe2LVaDGdShcBn4zMtE-12">
          <mxGeometry width="160" relative="1" as="geometry">
            <mxPoint x="760" y="260" as="sourcePoint" />
            <mxPoint x="790" y="380" as="targetPoint" />
          </mxGeometry>
        </mxCell>
        <mxCell id="Qpe2LVaDGdShcBn4zMtE-17" value="&lt;pre style=&quot;background-color: rgb(255 , 255 , 255) ; font-family: &amp;quot;courier&amp;quot; , monospace ; font-size: 10.5pt&quot;&gt;&lt;pre style=&quot;font-family: &amp;quot;courier&amp;quot; , monospace ; font-size: 10.5pt&quot;&gt;&lt;pre style=&quot;font-family: &amp;quot;courier&amp;quot; , monospace ; font-size: 10.5pt&quot;&gt;&lt;span style=&quot;color: #336ecc&quot;&gt;RedisStore&lt;/span&gt;&lt;/pre&gt;&lt;/pre&gt;&lt;/pre&gt;" style="rounded=0;whiteSpace=wrap;html=1;fontStyle=0" vertex="1" parent="WIyWlLk6GJQsqaUBKTNV-1">
          <mxGeometry x="1040" width="160" height="40" as="geometry" />
        </mxCell>
        <mxCell id="Qpe2LVaDGdShcBn4zMtE-18" value="&lt;pre style=&quot;background-color: rgb(255 , 255 , 255)&quot;&gt;&lt;pre&gt;&lt;pre&gt;&lt;font color=&quot;#336ecc&quot; face=&quot;courier, monospace&quot;&gt;&lt;span style=&quot;font-size: 14px&quot;&gt;RistrettoStore&lt;/span&gt;&lt;/font&gt;&lt;font face=&quot;courier, monospace&quot;&gt;&lt;span style=&quot;font-size: 10.5pt&quot;&gt;&lt;br&gt;&lt;/span&gt;&lt;/font&gt;&lt;/pre&gt;&lt;/pre&gt;&lt;/pre&gt;" style="rounded=0;whiteSpace=wrap;html=1;fontStyle=0" vertex="1" parent="WIyWlLk6GJQsqaUBKTNV-1">
          <mxGeometry x="1040" y="60" width="160" height="40" as="geometry" />
        </mxCell>
        <mxCell id="Qpe2LVaDGdShcBn4zMtE-19" value="" style="endArrow=block;endSize=16;endFill=0;html=1;entryX=1;entryY=0.5;entryDx=0;entryDy=0;exitX=0;exitY=0.5;exitDx=0;exitDy=0;edgeStyle=orthogonalEdgeStyle;" edge="1" parent="WIyWlLk6GJQsqaUBKTNV-1" source="Qpe2LVaDGdShcBn4zMtE-17" target="Qpe2LVaDGdShcBn4zMtE-8">
          <mxGeometry width="160" relative="1" as="geometry">
            <mxPoint x="530" y="230" as="sourcePoint" />
            <mxPoint x="570" y="230" as="targetPoint" />
          </mxGeometry>
        </mxCell>
        <mxCell id="Qpe2LVaDGdShcBn4zMtE-20" value="" style="endArrow=block;endSize=16;endFill=0;html=1;entryX=1;entryY=0.5;entryDx=0;entryDy=0;exitX=0;exitY=0.5;exitDx=0;exitDy=0;edgeStyle=orthogonalEdgeStyle;" edge="1" parent="WIyWlLk6GJQsqaUBKTNV-1" source="Qpe2LVaDGdShcBn4zMtE-18" target="Qpe2LVaDGdShcBn4zMtE-8">
          <mxGeometry width="160" relative="1" as="geometry">
            <mxPoint x="1050" y="90" as="sourcePoint" />
            <mxPoint x="970" y="150" as="targetPoint" />
          </mxGeometry>
        </mxCell>
        <mxCell id="Qpe2LVaDGdShcBn4zMtE-21" value="&lt;pre style=&quot;background-color: rgb(255 , 255 , 255) ; font-family: &amp;quot;courier&amp;quot; , monospace ; font-size: 10.5pt&quot;&gt;&lt;pre style=&quot;font-family: &amp;quot;courier&amp;quot; , monospace ; font-size: 10.5pt&quot;&gt;&lt;pre style=&quot;font-family: &amp;quot;courier&amp;quot; , monospace ; font-size: 10.5pt&quot;&gt;&lt;pre style=&quot;font-family: &amp;quot;courier&amp;quot; , monospace ; font-size: 10.5pt&quot;&gt;&lt;span style=&quot;color: #336ecc&quot;&gt;DBLoader&lt;/span&gt;&lt;/pre&gt;&lt;/pre&gt;&lt;/pre&gt;&lt;/pre&gt;" style="rounded=0;whiteSpace=wrap;html=1;fontStyle=0" vertex="1" parent="WIyWlLk6GJQsqaUBKTNV-1">
          <mxGeometry x="1040" y="120" width="160" height="40" as="geometry" />
        </mxCell>
        <mxCell id="Qpe2LVaDGdShcBn4zMtE-22" value="" style="endArrow=block;endSize=16;endFill=0;html=1;entryX=1;entryY=0.5;entryDx=0;entryDy=0;exitX=0;exitY=0.5;exitDx=0;exitDy=0;edgeStyle=orthogonalEdgeStyle;" edge="1" parent="WIyWlLk6GJQsqaUBKTNV-1" source="Qpe2LVaDGdShcBn4zMtE-21" target="Qpe2LVaDGdShcBn4zMtE-9">
          <mxGeometry width="160" relative="1" as="geometry">
            <mxPoint x="1050" y="150" as="sourcePoint" />
            <mxPoint x="970" y="150" as="targetPoint" />
          </mxGeometry>
        </mxCell>
        <mxCell id="Qpe2LVaDGdShcBn4zMtE-23" value="&lt;pre style=&quot;background-color: rgb(255 , 255 , 255) ; font-family: &amp;quot;courier&amp;quot; , monospace ; font-size: 10.5pt&quot;&gt;&lt;pre style=&quot;font-family: &amp;quot;courier&amp;quot; , monospace ; font-size: 10.5pt&quot;&gt;&lt;pre style=&quot;font-family: &amp;quot;courier&amp;quot; , monospace ; font-size: 10.5pt&quot;&gt;&lt;pre style=&quot;font-family: &amp;quot;courier&amp;quot; , monospace ; font-size: 10.5pt&quot;&gt;&lt;span style=&quot;color: #336ecc&quot;&gt;BusinessLoader&lt;/span&gt;&lt;/pre&gt;&lt;/pre&gt;&lt;/pre&gt;&lt;/pre&gt;" style="rounded=0;whiteSpace=wrap;html=1;fontStyle=0" vertex="1" parent="WIyWlLk6GJQsqaUBKTNV-1">
          <mxGeometry x="1040" y="180" width="160" height="40" as="geometry" />
        </mxCell>
        <mxCell id="Qpe2LVaDGdShcBn4zMtE-24" value="" style="endArrow=block;endSize=16;endFill=0;html=1;exitX=0;exitY=0.5;exitDx=0;exitDy=0;edgeStyle=orthogonalEdgeStyle;" edge="1" parent="WIyWlLk6GJQsqaUBKTNV-1" source="Qpe2LVaDGdShcBn4zMtE-23">
          <mxGeometry width="160" relative="1" as="geometry">
            <mxPoint x="1050" y="150" as="sourcePoint" />
            <mxPoint x="960" y="200" as="targetPoint" />
          </mxGeometry>
        </mxCell>
        <mxCell id="Qpe2LVaDGdShcBn4zMtE-25" value="&lt;pre style=&quot;background-color: rgb(255 , 255 , 255) ; font-family: &amp;#34;courier&amp;#34; , monospace ; font-size: 10.5pt&quot;&gt;&lt;pre style=&quot;font-family: &amp;#34;courier&amp;#34; , monospace ; font-size: 10.5pt&quot;&gt;&lt;pre style=&quot;font-family: &amp;#34;courier&amp;#34; , monospace ; font-size: 10.5pt&quot;&gt;&lt;pre style=&quot;font-family: &amp;#34;courier&amp;#34; , monospace ; font-size: 10.5pt&quot;&gt;&lt;pre style=&quot;font-family: &amp;#34;courier&amp;#34; , monospace ; font-size: 10.5pt&quot;&gt;&lt;span style=&quot;font-style: normal&quot;&gt;ByteMetrics&lt;/span&gt;&lt;/pre&gt;&lt;/pre&gt;&lt;/pre&gt;&lt;/pre&gt;&lt;/pre&gt;" style="rounded=0;whiteSpace=wrap;html=1;fontStyle=2" vertex="1" parent="WIyWlLk6GJQsqaUBKTNV-1">
          <mxGeometry x="1040" y="240" width="160" height="40" as="geometry" />
        </mxCell>
        <mxCell id="Qpe2LVaDGdShcBn4zMtE-26" value="" style="endArrow=block;endSize=16;endFill=0;html=1;exitX=0;exitY=0.5;exitDx=0;exitDy=0;edgeStyle=orthogonalEdgeStyle;entryX=1;entryY=0.5;entryDx=0;entryDy=0;" edge="1" parent="WIyWlLk6GJQsqaUBKTNV-1" source="Qpe2LVaDGdShcBn4zMtE-25" target="Qpe2LVaDGdShcBn4zMtE-10">
          <mxGeometry width="160" relative="1" as="geometry">
            <mxPoint x="1050" y="210" as="sourcePoint" />
            <mxPoint x="970" y="210" as="targetPoint" />
          </mxGeometry>
        </mxCell>
        <mxCell id="Qpe2LVaDGdShcBn4zMtE-29" value="&lt;pre style=&quot;background-color: rgb(255 , 255 , 255) ; font-family: &amp;#34;courier&amp;#34; , monospace ; font-size: 10.5pt&quot;&gt;&lt;pre style=&quot;font-family: &amp;#34;courier&amp;#34; , monospace ; font-size: 10.5pt&quot;&gt;&lt;pre style=&quot;font-family: &amp;#34;courier&amp;#34; , monospace ; font-size: 10.5pt&quot;&gt;&lt;pre style=&quot;font-family: &amp;#34;courier&amp;#34; , monospace ; font-size: 10.5pt&quot;&gt;&lt;pre style=&quot;font-family: &amp;#34;courier&amp;#34; , monospace ; font-size: 10.5pt&quot;&gt;&lt;span style=&quot;font-style: normal&quot;&gt;DefaultKey&lt;/span&gt;&lt;/pre&gt;&lt;/pre&gt;&lt;/pre&gt;&lt;/pre&gt;&lt;/pre&gt;" style="rounded=0;whiteSpace=wrap;html=1;fontStyle=2" vertex="1" parent="WIyWlLk6GJQsqaUBKTNV-1">
          <mxGeometry x="1040" y="300" width="160" height="40" as="geometry" />
        </mxCell>
        <mxCell id="Qpe2LVaDGdShcBn4zMtE-30" value="" style="endArrow=block;endSize=16;endFill=0;html=1;exitX=0;exitY=0.5;exitDx=0;exitDy=0;edgeStyle=orthogonalEdgeStyle;entryX=1;entryY=0.5;entryDx=0;entryDy=0;" edge="1" parent="WIyWlLk6GJQsqaUBKTNV-1" source="Qpe2LVaDGdShcBn4zMtE-29" target="Qpe2LVaDGdShcBn4zMtE-11">
          <mxGeometry width="160" relative="1" as="geometry">
            <mxPoint x="1050" y="270" as="sourcePoint" />
            <mxPoint x="970" y="270" as="targetPoint" />
          </mxGeometry>
        </mxCell>
        <mxCell id="Qpe2LVaDGdShcBn4zMtE-31" value="&lt;pre style=&quot;background-color: rgb(255 , 255 , 255) ; font-family: &amp;#34;courier&amp;#34; , monospace ; font-size: 10.5pt&quot;&gt;&lt;pre style=&quot;font-family: &amp;#34;courier&amp;#34; , monospace ; font-size: 10.5pt&quot;&gt;&lt;pre style=&quot;font-family: &amp;#34;courier&amp;#34; , monospace ; font-size: 10.5pt&quot;&gt;&lt;pre style=&quot;font-family: &amp;#34;courier&amp;#34; , monospace ; font-size: 10.5pt&quot;&gt;&lt;pre style=&quot;font-family: &amp;#34;courier&amp;#34; , monospace ; font-size: 10.5pt&quot;&gt;&lt;span style=&quot;font-style: normal&quot;&gt;JsonMarshaller&lt;/span&gt;&lt;/pre&gt;&lt;/pre&gt;&lt;/pre&gt;&lt;/pre&gt;&lt;/pre&gt;" style="rounded=0;whiteSpace=wrap;html=1;fontStyle=2" vertex="1" parent="WIyWlLk6GJQsqaUBKTNV-1">
          <mxGeometry x="1040" y="360" width="160" height="40" as="geometry" />
        </mxCell>
        <mxCell id="Qpe2LVaDGdShcBn4zMtE-32" value="&lt;pre style=&quot;background-color: rgb(255 , 255 , 255) ; font-family: &amp;#34;courier&amp;#34; , monospace ; font-size: 10.5pt&quot;&gt;&lt;pre style=&quot;font-family: &amp;#34;courier&amp;#34; , monospace ; font-size: 10.5pt&quot;&gt;&lt;pre style=&quot;font-family: &amp;#34;courier&amp;#34; , monospace ; font-size: 10.5pt&quot;&gt;&lt;pre style=&quot;font-family: &amp;#34;courier&amp;#34; , monospace ; font-size: 10.5pt&quot;&gt;&lt;pre style=&quot;font-family: &amp;#34;courier&amp;#34; , monospace ; font-size: 10.5pt&quot;&gt;&lt;span style=&quot;font-style: normal&quot;&gt;ThriftMashaller&lt;/span&gt;&lt;/pre&gt;&lt;/pre&gt;&lt;/pre&gt;&lt;/pre&gt;&lt;/pre&gt;" style="rounded=0;whiteSpace=wrap;html=1;fontStyle=2" vertex="1" parent="WIyWlLk6GJQsqaUBKTNV-1">
          <mxGeometry x="1040" y="420" width="160" height="40" as="geometry" />
        </mxCell>
        <mxCell id="Qpe2LVaDGdShcBn4zMtE-33" value="&lt;pre style=&quot;background-color: rgb(255 , 255 , 255) ; font-family: &amp;#34;courier&amp;#34; , monospace ; font-size: 10.5pt&quot;&gt;&lt;pre style=&quot;font-family: &amp;#34;courier&amp;#34; , monospace ; font-size: 10.5pt&quot;&gt;&lt;pre style=&quot;font-family: &amp;#34;courier&amp;#34; , monospace ; font-size: 10.5pt&quot;&gt;&lt;pre style=&quot;font-family: &amp;#34;courier&amp;#34; , monospace ; font-size: 10.5pt&quot;&gt;&lt;pre style=&quot;font-family: &amp;#34;courier&amp;#34; , monospace ; font-size: 10.5pt&quot;&gt;&lt;span style=&quot;font-style: normal&quot;&gt;ProtobufMarshaller&lt;/span&gt;&lt;/pre&gt;&lt;/pre&gt;&lt;/pre&gt;&lt;/pre&gt;&lt;/pre&gt;" style="rounded=0;whiteSpace=wrap;html=1;fontStyle=2" vertex="1" parent="WIyWlLk6GJQsqaUBKTNV-1">
          <mxGeometry x="1040" y="480" width="160" height="40" as="geometry" />
        </mxCell>
        <mxCell id="Qpe2LVaDGdShcBn4zMtE-34" value="" style="endArrow=block;endSize=16;endFill=0;html=1;exitX=0;exitY=0.5;exitDx=0;exitDy=0;edgeStyle=orthogonalEdgeStyle;entryX=1;entryY=0.5;entryDx=0;entryDy=0;" edge="1" parent="WIyWlLk6GJQsqaUBKTNV-1" source="Qpe2LVaDGdShcBn4zMtE-31" target="Qpe2LVaDGdShcBn4zMtE-12">
          <mxGeometry width="160" relative="1" as="geometry">
            <mxPoint x="1050" y="330" as="sourcePoint" />
            <mxPoint x="970" y="330" as="targetPoint" />
            <Array as="points">
              <mxPoint x="1020" y="380" />
              <mxPoint x="1020" y="380" />
            </Array>
          </mxGeometry>
        </mxCell>
        <mxCell id="Qpe2LVaDGdShcBn4zMtE-35" value="" style="endArrow=block;endSize=16;endFill=0;html=1;exitX=0;exitY=0.5;exitDx=0;exitDy=0;edgeStyle=orthogonalEdgeStyle;" edge="1" parent="WIyWlLk6GJQsqaUBKTNV-1" source="Qpe2LVaDGdShcBn4zMtE-32">
          <mxGeometry width="160" relative="1" as="geometry">
            <mxPoint x="1050" y="390" as="sourcePoint" />
            <mxPoint x="960" y="380" as="targetPoint" />
            <Array as="points">
              <mxPoint x="1000" y="440" />
              <mxPoint x="1000" y="380" />
            </Array>
          </mxGeometry>
        </mxCell>
        <mxCell id="Qpe2LVaDGdShcBn4zMtE-36" value="" style="endArrow=block;endSize=16;endFill=0;html=1;exitX=0;exitY=0.5;exitDx=0;exitDy=0;edgeStyle=orthogonalEdgeStyle;" edge="1" parent="WIyWlLk6GJQsqaUBKTNV-1" source="Qpe2LVaDGdShcBn4zMtE-33">
          <mxGeometry width="160" relative="1" as="geometry">
            <mxPoint x="1060" y="400" as="sourcePoint" />
            <mxPoint x="960" y="380" as="targetPoint" />
            <Array as="points">
              <mxPoint x="1000" y="500" />
              <mxPoint x="1000" y="380" />
            </Array>
          </mxGeometry>
        </mxCell>
        <mxCell id="Qpe2LVaDGdShcBn4zMtE-37" value="&lt;pre style=&quot;background-color: rgb(255 , 255 , 255) ; font-family: &amp;#34;courier&amp;#34; , monospace ; font-size: 10.5pt&quot;&gt;&lt;pre style=&quot;font-family: &amp;#34;courier&amp;#34; , monospace ; font-size: 10.5pt&quot;&gt;&lt;pre style=&quot;font-family: &amp;#34;courier&amp;#34; , monospace ; font-size: 10.5pt&quot;&gt;&lt;span style=&quot;color: #336ecc&quot;&gt;RedisClient&lt;/span&gt;&lt;/pre&gt;&lt;/pre&gt;&lt;/pre&gt;" style="rounded=0;whiteSpace=wrap;html=1;fontStyle=0" vertex="1" parent="WIyWlLk6GJQsqaUBKTNV-1">
          <mxGeometry x="1560" width="160" height="40" as="geometry" />
        </mxCell>
        <mxCell id="Qpe2LVaDGdShcBn4zMtE-38" value="&lt;pre style=&quot;background-color: rgb(255 , 255 , 255) ; font-family: &amp;#34;courier&amp;#34; , monospace ; font-size: 10.5pt&quot;&gt;&lt;pre style=&quot;font-family: &amp;#34;courier&amp;#34; , monospace ; font-size: 10.5pt&quot;&gt;&lt;pre style=&quot;font-family: &amp;#34;courier&amp;#34; , monospace ; font-size: 10.5pt&quot;&gt;&lt;span style=&quot;color: #336ecc&quot;&gt;Abase&lt;/span&gt;&lt;/pre&gt;&lt;/pre&gt;&lt;/pre&gt;" style="rounded=0;whiteSpace=wrap;html=1;fontStyle=0" vertex="1" parent="WIyWlLk6GJQsqaUBKTNV-1">
          <mxGeometry x="1800" width="160" height="40" as="geometry" />
        </mxCell>
        <mxCell id="Qpe2LVaDGdShcBn4zMtE-39" value="&lt;pre style=&quot;background-color: rgb(255 , 255 , 255) ; font-family: &amp;quot;courier&amp;quot; , monospace ; font-size: 10.5pt&quot;&gt;&lt;pre style=&quot;font-family: &amp;quot;courier&amp;quot; , monospace ; font-size: 10.5pt&quot;&gt;&lt;pre style=&quot;font-family: &amp;quot;courier&amp;quot; , monospace ; font-size: 10.5pt&quot;&gt;&lt;span style=&quot;color: #336ecc&quot;&gt;RedisClientInterface&lt;/span&gt;&lt;/pre&gt;&lt;/pre&gt;&lt;/pre&gt;" style="rounded=0;whiteSpace=wrap;html=1;fontStyle=2" vertex="1" parent="WIyWlLk6GJQsqaUBKTNV-1">
          <mxGeometry x="1280" width="240" height="40" as="geometry" />
        </mxCell>
        <mxCell id="Qpe2LVaDGdShcBn4zMtE-40" value="" style="endArrow=open;endSize=12;dashed=1;html=1;entryX=0;entryY=0.5;entryDx=0;entryDy=0;edgeStyle=orthogonalEdgeStyle;" edge="1" parent="WIyWlLk6GJQsqaUBKTNV-1" target="Qpe2LVaDGdShcBn4zMtE-39">
          <mxGeometry width="160" relative="1" as="geometry">
            <mxPoint x="1200" y="20" as="sourcePoint" />
            <mxPoint x="810" y="150" as="targetPoint" />
          </mxGeometry>
        </mxCell>
        <mxCell id="Qpe2LVaDGdShcBn4zMtE-42" value="&lt;pre style=&quot;background-color: rgb(255 , 255 , 255) ; font-family: &amp;quot;courier&amp;quot; , monospace ; font-size: 10.5pt&quot;&gt;&lt;pre style=&quot;font-family: &amp;quot;courier&amp;quot; , monospace ; font-size: 10.5pt&quot;&gt;&lt;pre style=&quot;font-family: &amp;quot;courier&amp;quot; , monospace ; font-size: 10.5pt&quot;&gt;&lt;span style=&quot;color: #336ecc&quot;&gt;RistrettoClientInterface&lt;/span&gt;&lt;/pre&gt;&lt;/pre&gt;&lt;/pre&gt;" style="rounded=0;whiteSpace=wrap;html=1;fontStyle=2" vertex="1" parent="WIyWlLk6GJQsqaUBKTNV-1">
          <mxGeometry x="1280" y="60" width="240" height="40" as="geometry" />
        </mxCell>
        <mxCell id="Qpe2LVaDGdShcBn4zMtE-43" value="" style="endArrow=open;endSize=12;dashed=1;html=1;entryX=0;entryY=0.5;entryDx=0;entryDy=0;edgeStyle=orthogonalEdgeStyle;" edge="1" parent="WIyWlLk6GJQsqaUBKTNV-1" target="Qpe2LVaDGdShcBn4zMtE-42">
          <mxGeometry width="160" relative="1" as="geometry">
            <mxPoint x="1200" y="80" as="sourcePoint" />
            <mxPoint x="810" y="210" as="targetPoint" />
          </mxGeometry>
        </mxCell>
        <mxCell id="Qpe2LVaDGdShcBn4zMtE-44" value="&lt;pre style=&quot;background-color: rgb(255 , 255 , 255) ; font-family: &amp;#34;courier&amp;#34; , monospace ; font-size: 10.5pt&quot;&gt;&lt;pre style=&quot;font-family: &amp;#34;courier&amp;#34; , monospace ; font-size: 10.5pt&quot;&gt;&lt;pre style=&quot;font-family: &amp;#34;courier&amp;#34; , monospace ; font-size: 10.5pt&quot;&gt;&lt;span style=&quot;color: #336ecc&quot;&gt;Ristretto&lt;/span&gt;&lt;/pre&gt;&lt;/pre&gt;&lt;/pre&gt;" style="rounded=0;whiteSpace=wrap;html=1;fontStyle=0" vertex="1" parent="WIyWlLk6GJQsqaUBKTNV-1">
          <mxGeometry x="1560" y="60" width="160" height="40" as="geometry" />
        </mxCell>
        <mxCell id="Qpe2LVaDGdShcBn4zMtE-45" value="" style="endArrow=block;endSize=16;endFill=0;html=1;entryX=1;entryY=0.5;entryDx=0;entryDy=0;exitX=0;exitY=0.5;exitDx=0;exitDy=0;edgeStyle=orthogonalEdgeStyle;" edge="1" parent="WIyWlLk6GJQsqaUBKTNV-1" source="Qpe2LVaDGdShcBn4zMtE-44" target="Qpe2LVaDGdShcBn4zMtE-42">
          <mxGeometry width="160" relative="1" as="geometry">
            <mxPoint x="1050" y="30" as="sourcePoint" />
            <mxPoint x="970" y="150" as="targetPoint" />
          </mxGeometry>
        </mxCell>
        <mxCell id="Qpe2LVaDGdShcBn4zMtE-46" value="" style="endArrow=block;endSize=16;endFill=0;html=1;entryX=1;entryY=0.5;entryDx=0;entryDy=0;exitX=0;exitY=0.5;exitDx=0;exitDy=0;edgeStyle=orthogonalEdgeStyle;" edge="1" parent="WIyWlLk6GJQsqaUBKTNV-1" source="Qpe2LVaDGdShcBn4zMtE-37" target="Qpe2LVaDGdShcBn4zMtE-39">
          <mxGeometry width="160" relative="1" as="geometry">
            <mxPoint x="1569.9999999999995" y="90" as="sourcePoint" />
            <mxPoint x="1530.0000000000005" y="90" as="targetPoint" />
          </mxGeometry>
        </mxCell>
        <mxCell id="Qpe2LVaDGdShcBn4zMtE-48" value="&lt;pre style=&quot;background-color: rgb(255 , 255 , 255) ; font-family: &amp;#34;courier&amp;#34; , monospace ; font-size: 10.5pt&quot;&gt;&lt;pre style=&quot;font-family: &amp;#34;courier&amp;#34; , monospace ; font-size: 10.5pt&quot;&gt;&lt;pre style=&quot;font-family: &amp;#34;courier&amp;#34; , monospace ; font-size: 10.5pt&quot;&gt;&lt;span style=&quot;color: #336ecc&quot;&gt;Abase&lt;/span&gt;&lt;/pre&gt;&lt;/pre&gt;&lt;/pre&gt;" style="rounded=0;whiteSpace=wrap;html=1;fontStyle=0" vertex="1" parent="WIyWlLk6GJQsqaUBKTNV-1">
          <mxGeometry x="1800" y="-80" width="160" height="40" as="geometry" />
        </mxCell>
        <mxCell id="Qpe2LVaDGdShcBn4zMtE-49" value="" style="endArrow=block;endSize=16;endFill=0;html=1;entryX=1;entryY=0.5;entryDx=0;entryDy=0;exitX=0;exitY=0.5;exitDx=0;exitDy=0;edgeStyle=orthogonalEdgeStyle;" edge="1" parent="WIyWlLk6GJQsqaUBKTNV-1" source="Qpe2LVaDGdShcBn4zMtE-48" target="Qpe2LVaDGdShcBn4zMtE-37">
          <mxGeometry width="160" relative="1" as="geometry">
            <mxPoint x="1569.9999999999995" y="30" as="sourcePoint" />
            <mxPoint x="1530.0000000000005" y="30" as="targetPoint" />
          </mxGeometry>
        </mxCell>
        <mxCell id="Qpe2LVaDGdShcBn4zMtE-50" value="" style="endArrow=block;endSize=16;endFill=0;html=1;entryX=1;entryY=0.5;entryDx=0;entryDy=0;exitX=0;exitY=0.5;exitDx=0;exitDy=0;edgeStyle=orthogonalEdgeStyle;" edge="1" parent="WIyWlLk6GJQsqaUBKTNV-1" source="Qpe2LVaDGdShcBn4zMtE-38" target="Qpe2LVaDGdShcBn4zMtE-37">
          <mxGeometry width="160" relative="1" as="geometry">
            <mxPoint x="1579.9999999999995" y="40" as="sourcePoint" />
            <mxPoint x="1540.0000000000005" y="40" as="targetPoint" />
          </mxGeometry>
        </mxCell>
      </root>
    </mxGraphModel>
  </diagram>
</mxfile>
